<?xml version="1.0" encoding="UTF-8" standalone="no"?>
<!-- Created with Inkscape (http://www.inkscape.org/) -->

<svg
   width="225mm"
   height="225mm"
   viewBox="0 0 225 225"
   version="1.1"
   id="svg1"
   inkscape:export-filename="hemolymph.png"
   inkscape:export-xdpi="96"
   inkscape:export-ydpi="96"
   inkscape:version="1.3.2 (091e20e, 2023-11-25, custom)"
   sodipodi:docname="BloodLogo.svg"
   xmlns:inkscape="http://www.inkscape.org/namespaces/inkscape"
   xmlns:sodipodi="http://sodipodi.sourceforge.net/DTD/sodipodi-0.dtd"
   xmlns="http://www.w3.org/2000/svg"
   xmlns:svg="http://www.w3.org/2000/svg">
  <sodipodi:namedview
     id="namedview1"
     pagecolor="#5f5f54"
     bordercolor="#000000"
     borderopacity="0.25"
     inkscape:showpageshadow="2"
     inkscape:pageopacity="0.0"
     inkscape:pagecheckerboard="0"
     inkscape:deskcolor="#d1d1d1"
     inkscape:document-units="mm"
     showguides="true"
     inkscape:lockguides="true"
     inkscape:export-bgcolor="#2a251bff"
     inkscape:zoom="0.62695492"
     inkscape:cx="409.12032"
     inkscape:cy="339.73735"
     inkscape:window-width="1898"
     inkscape:window-height="950"
     inkscape:window-x="3"
     inkscape:window-y="40"
     inkscape:window-maximized="0"
     inkscape:current-layer="layer4">
    <sodipodi:guide
       position="105,162.23679"
       orientation="-1,0"
       id="guide1"
       inkscape:locked="true"
       inkscape:label=""
       inkscape:color="rgb(0,134,229)" />
  </sodipodi:namedview>
  <defs
     id="defs1">
    <linearGradient
       id="swatch9"
       inkscape:swatch="solid">
      <stop
         style="stop-color:#f5c32b;stop-opacity:1;"
         offset="0"
         id="stop9" />
    </linearGradient>
  </defs>
  <g
     inkscape:groupmode="layer"
     id="layer4"
     inkscape:label="liqid 2"
     transform="translate(0.31005475,2.5982908)">
    <rect
       style="fill:#362118;fill-opacity:1;stroke-width:8.93074;stroke-linecap:round;stroke-linejoin:round;paint-order:markers stroke fill"
       id="rect1"
       width="225"
       height="225"
       x="-0.31005475"
       y="-2.5982907" />
    <g
       inkscape:groupmode="layer"
       id="layer2"
       inkscape:label="liqid"
       transform="translate(-36.107428,6.5649867)"
       style="display:inline">
      <path
         style="display:inline;fill:#790e00;fill-opacity:1;stroke:none;stroke-width:1.5;stroke-linecap:square;stroke-dasharray:none;stroke-opacity:1;paint-order:markers stroke fill"
         d="m 113.26927,76.660463 c 5.45419,2.84792 10.33018,7.87212 14.5877,12.93623 5.05418,6.01171 7.33359,14.630057 13.78601,19.107967 5.02829,3.48957 9.61693,4.21468 17.70823,4.85444 7.74345,7.19127 21.53423,21.12128 21.53423,21.12128 l -23.64161,29.33684 -37.78117,3.88152 -17.15472,-84.555207 c -1.91895,-0.94993 -6.624362,1.28358 -7.566235,-1.08375 -1.161214,-2.91863 2.943625,-6.214157 5.860705,-7.379256 3.95962,-1.581496 9.81894,0.292887 12.66686,1.779936 z"
         id="path5"
         sodipodi:nodetypes="ssacccccaas" />
      <path
         style="display:inline;fill:#790e00;fill-opacity:1;stroke:none;stroke-width:1.5;stroke-linecap:square;stroke-dasharray:none;stroke-opacity:1;paint-order:markers stroke fill"
         d="m 102.69038,51.871899 c -3.23282,1.074104 0.13946,8.17407 4.67161,15.460806 -2.14567,-4.307423 -1.14175,-16.633603 -4.67161,-15.460806 z"
         id="path6"
         sodipodi:nodetypes="aca" />
      <path
         style="display:inline;fill:#790e00;fill-opacity:1;stroke:none;stroke-width:1.5;stroke-linecap:square;stroke-dasharray:none;stroke-opacity:1;paint-order:markers stroke fill"
         d="m 118.58992,59.987554 c -2.18606,-1.717274 -3.44943,3.636135 -5.19095,13.763864 2.88657,-7.524323 8.05413,-11.514666 5.19095,-13.763864 z"
         id="path7"
         sodipodi:nodetypes="scs" />
      <path
         style="display:inline;fill:#790e00;fill-opacity:1;stroke:none;stroke-width:1.5;stroke-linecap:square;stroke-dasharray:none;stroke-opacity:1;paint-order:markers stroke fill"
         d="m 91.024023,84.933983 c 0,0 -15.065695,15.210547 -8.966174,13.52792 4.561737,-1.25841 8.966174,-13.52792 8.966174,-13.52792 z"
         id="path8"
         sodipodi:nodetypes="csc" />
      <path
         style="display:inline;fill:none;stroke:#000000;stroke-width:1.5;stroke-linecap:square;stroke-dasharray:none;stroke-opacity:1;paint-order:markers stroke fill"
         d="m 101.78527,84.338823 17.93514,83.829177 37.68974,-4.21579 23.51491,-29.75465 -61.65275,-59.564577 -7.77293,6.60162 z"
         id="path10"
         sodipodi:nodetypes="ccccccc" />
      <path
         style="display:inline;fill:#000000;fill-opacity:0.189922;stroke:none;stroke-width:2.11667;stroke-linecap:square;stroke-opacity:1;paint-order:markers stroke fill"
         d="m 111.98466,82.108963 7.3087,-6.115218 59.91589,58.547465 -22.40978,28.31071 -7.31227,0.77722 6.91571,-1.4917 z"
         id="path11"
         sodipodi:nodetypes="ccccccc" />
    </g>
    <g
       inkscape:label="Capa 1"
       inkscape:groupmode="layer"
       id="layer1"
       transform="translate(-36.107428,6.5649867)">
      <path
         style="fill:none;fill-opacity:0;stroke:#ffffff;stroke-width:4;stroke-linecap:square;stroke-dasharray:none;stroke-opacity:1;paint-order:markers stroke fill"
         d="m 101.78527,84.338823 17.93514,83.829177 37.68974,-4.21579 23.51491,-29.75465 -61.65275,-59.564577 -7.77293,6.60162 z"
         id="path9"
         sodipodi:nodetypes="ccccccc" />
      <path
         style="display:inline;fill:none;stroke:#000000;stroke-width:1.5;stroke-linecap:square;stroke-dasharray:none;stroke-opacity:1;paint-order:markers stroke fill"
         d="m 101.78527,84.338823 17.93514,83.829177 37.68974,-4.21579 23.51491,-29.75465 -61.65275,-59.564577 -7.77293,6.60162 z"
         id="path1"
         sodipodi:nodetypes="ccccccc" />
      <path
         style="display:inline;fill:#ffffff;fill-opacity:1;stroke:none;stroke-width:2.11667;stroke-linecap:square;stroke-opacity:1;paint-order:markers stroke fill"
         d="m 161.3602,154.34431 15.57581,-19.83977 -16.41496,-15.82292 13.18466,15.96206 z"
         id="path3" />
      <path
         style="fill:#ffffff;fill-opacity:1;stroke:none;stroke-width:1.5;stroke-linecap:square;stroke-dasharray:none;stroke-opacity:1;paint-order:markers stroke fill"
         d="m 103.4991,85.378723 3.57669,16.535867 -2.46167,-15.828047 7.1744,-3.64337 z"
         id="path4"
         sodipodi:nodetypes="ccccc" />
    </g>
    <g
       inkscape:groupmode="layer"
       id="layer3"
       inkscape:label="didireallyhaveanyofthatgravity"
       transform="rotate(32.763185,128.66411,55.977818)">
      <path
         style="display:inline;fill:#82716b;fill-opacity:1;fill-rule:nonzero;stroke:#34211a;stroke-width:4;stroke-linecap:round;stroke-linejoin:miter;stroke-dasharray:none;stroke-opacity:1;paint-order:markers stroke fill"
         d="M 154.68995,18.502375 V 125.40171 h -25 c 0,0 1.90148,-58.419173 11.65747,-85.465816 2.85554,-7.916451 13.34253,-21.433519 13.34253,-21.433519 z"
         id="path2"
         sodipodi:nodetypes="cccac"
         transform="translate(0.31005476,2.5982908)" />
      <path
         style="fill:#6c330f;fill-opacity:1;fill-rule:nonzero;stroke:#5c1c05;stroke-width:4;stroke-linecap:round;stroke-linejoin:miter;stroke-dasharray:none;stroke-opacity:1;paint-order:markers stroke fill"
         d="m 155.21101,128 4.41553,48.19056 -12.54119,14.94217 -12.99062,-15.04767 8.17651,-46.0805 c 4.41433,-0.0292 8.51877,-2.12197 12.93977,-2.00456 z"
         id="path12"
         sodipodi:nodetypes="cccccc" />
      <path
         style="fill:#bfb6b0;fill-opacity:1;fill-rule:nonzero;stroke:none;stroke-width:4;stroke-linecap:round;stroke-linejoin:miter;stroke-dasharray:none;stroke-opacity:1;paint-order:markers stroke fill"
         d="m 131.1364,127.2062 c 0,0 1.90496,-57.484676 11.13121,-84.276827 2.5678,-7.456656 12.00073,-20.389718 12.00073,-20.389718 0,0 -7.04358,13.815935 -9.05816,21.24669 -7.32511,27.018514 -10.59549,83.310575 -10.59549,83.310575 z"
         id="path13"
         sodipodi:nodetypes="cacacc" />
      <path
         style="fill:#620b00;fill-opacity:1;fill-rule:nonzero;stroke:none;stroke-width:4;stroke-linecap:round;stroke-linejoin:miter;stroke-dasharray:none;stroke-opacity:1;paint-order:markers stroke fill"
         d="m 134.45604,61.969939 c 0,0 3.02957,-14.196873 5.63666,-20.93818 3.41088,-8.819718 15.19073,-23.856198 15.19073,-23.856198 0,0 0.0926,17.334448 -5.21535,23.237501 -1.09688,1.219865 -3.9493,0.101977 -4.66094,1.580083 -1.06243,2.206716 3.72115,4.790186 2.4956,6.910656 -1.06536,1.843311 -4.96254,-1.612118 -6.28828,1.119187 -4.17681,8.605098 8.06796,11.300118 4.41895,15.040297 -2.78948,2.859172 -11.57737,-3.093346 -11.57737,-3.093346 z"
         id="path14"
         sodipodi:nodetypes="cscasasac" />
    </g>
    <path
       style="fill:#620b00;fill-opacity:1;fill-rule:nonzero;stroke:none;stroke-width:4;stroke-linecap:round;stroke-linejoin:miter;stroke-dasharray:none;stroke-opacity:1;paint-order:markers stroke fill"
       d="m 108.75825,89.535329 19.24734,-5.445956 -15.66644,7.161805 13.12997,-2.984087 -17.7553,6.863398 6.19197,-1.119034 -10.07128,7.311005 3.5063,-0.82062 -11.190323,5.81897 z"
       id="path15" />
  </g>
</svg>
